<?xml version="1.0" encoding="utf-8"?>
<!-- Generator: Adobe Illustrator 26.0.2, SVG Export Plug-In . SVG Version: 6.00 Build 0)  -->
<svg version="1.1" id="Layer_1" xmlns="http://www.w3.org/2000/svg" xmlns:xlink="http://www.w3.org/1999/xlink" x="0px" y="0px"
	 viewBox="0 0 300 75.5" style="enable-background:new 0 0 300 75.5;" xml:space="preserve">
<style type="text/css">
	.st0{fill:#404041;}
	.st1{fill:url(#Path_7984_00000026843908183891457270000007504354071799952779_);}
	.st2{fill:url(#Path_7985_00000104679618194916051550000002716227783846030738_);}
	.st3{fill:url(#Path_7986_00000110458456304048981060000012084867732069109385_);}
</style>
<g id="Ignition_logo_final-pos" transform="translate(-2.434 -2.487)">
	<path id="Path_7976" class="st0" d="M105.2,31.8c-3.2,0-5.4-2-5.4-4.9c0.3-3,2.9-5.2,5.9-4.9c2.6,0.2,4.6,2.3,4.9,4.9
		C110.6,29.8,108.4,31.8,105.2,31.8z M100.4,64.3V35.1h9.5v29.2L100.4,64.3z"/>
	<path id="Path_7977" class="st0" d="M141.2,71c-2.8,2.7-6.7,4.6-13.4,4.6c-5,0-10-1.5-14.1-4.3l3.9-6.3c3,2,6.5,3.2,10.1,3.3
		c5.6,0,8.6-2.4,8.6-8.1v-0.9h-0.1c-2.2,2.8-5.6,4.3-9.2,4.1c-7.2,0-13.8-5-13.8-14.4s6.6-14.4,13.8-14.4c3.6-0.2,7,1.4,9.2,4.3h0.1
		l-0.1-3.7h9.5v23.2C145.6,64.6,144,68.3,141.2,71z M129.7,42c-3.7-0.1-6.8,2.8-6.9,6.4c0,0.2,0,0.4,0,0.6c-0.1,3.8,2.8,6.9,6.6,7.1
		c3.8,0.1,6.9-2.8,7.1-6.6c0-0.2,0-0.3,0-0.5c0.2-3.6-2.5-6.8-6.2-7C130.1,42,129.9,42,129.7,42z"/>
	<path id="Path_7978" class="st0" d="M169.8,64.3V49.1c0-3.8-0.6-6.7-4.5-6.7c-4.1,0-5.2,3.3-5.2,7.5v14.4h-9.5V35.1h9.5l-0.1,4.2
		h0.1c1.7-3,5-4.8,8.5-4.7c8.5,0,10.6,5.4,10.6,12.5v17.2H169.8z"/>
	<path id="Path_7979" class="st0" d="M188.7,31.8c-3.2,0-5.4-2-5.4-4.9c0.3-3,2.9-5.2,5.9-4.9c2.6,0.2,4.6,2.3,4.9,4.9
		C194.1,29.8,191.9,31.8,188.7,31.8z M184,64.3V35.1h9.5v29.2L184,64.3z"/>
	<path id="Path_7980" class="st0" d="M210.8,42.3v10.5c0,2.5,0.2,4.3,3.1,4.3c1,0,1.9-0.2,2.8-0.5l0.5,7.4c-2.2,0.6-4.5,0.9-6.7,0.9
		c-7.6,0-9.2-4.6-9.2-11.3V42.3h-4.1v-7.2h4.1v-7.9h9.5v7.9h6.4v7.2H210.8z"/>
	<path id="Path_7981" class="st0" d="M225.9,31.8c-3.2,0-5.4-2-5.4-4.9c0.3-3,2.9-5.2,5.9-4.9c2.6,0.2,4.6,2.3,4.9,4.9
		C231.3,29.8,229.1,31.8,225.9,31.8z M221.1,64.3V35.1h9.5v29.2L221.1,64.3z"/>
	<path id="Path_7982" class="st0" d="M250.4,64.9c-9.2,0-16.2-5.7-16.2-15.1s7-15.2,16.2-15.2c9.2,0,16.1,5.8,16.1,15.2
		S259.6,64.9,250.4,64.9z M250.4,42c-4.2,0-6.6,3.3-6.6,7.6s2.4,7.6,6.6,7.6c4.1,0,6.6-3.3,6.6-7.6S254.5,42,250.4,42z"/>
	<path id="Path_7983" class="st0" d="M289.4,64.3V49.1c0-3.8-0.6-6.7-4.5-6.7c-4.1,0-5.2,3.3-5.2,7.5v14.4h-9.5V35.1h9.5l-0.1,4.2
		h0.1c1.7-3,5-4.8,8.5-4.7c8.5,0,10.6,5.4,10.6,12.5v17.2H289.4z"/>
	
		<linearGradient id="Path_7984_00000163054537075722762860000005457705301152352920_" gradientUnits="userSpaceOnUse" x1="-237.5997" y1="336.8978" x2="-236.5325" y2="335.8018" gradientTransform="matrix(30.7461 0 0 -66.7468 7319.5835 22494.457)">
		<stop  offset="4.000000e-03" style="stop-color:#F16522"/>
		<stop  offset="0.208" style="stop-color:#EB6022"/>
		<stop  offset="0.476" style="stop-color:#DB5322"/>
		<stop  offset="0.778" style="stop-color:#C03E21"/>
		<stop  offset="1" style="stop-color:#A72A21"/>
	</linearGradient>
	<path id="Path_7984" style="fill:url(#Path_7984_00000163054537075722762860000005457705301152352920_);" d="M40,62.7
		c0-0.1,0-0.3-0.1-0.4c0-0.1,0-0.1,0-0.2c-0.1-0.2-0.1-0.4-0.2-0.6c0,0,0-0.1-0.1-0.1c-0.1-0.1-0.2-0.3-0.3-0.4
		c0-0.1-0.1-0.1-0.1-0.2c-0.1-0.1-0.2-0.2-0.3-0.3c-0.1-0.1-0.1-0.1-0.2-0.1c-0.1-0.1-0.2-0.2-0.3-0.2c-0.1,0-0.1-0.1-0.2-0.1
		c-0.2-0.1-0.4-0.2-0.6-0.2c-10.9-3.3-17-14.7-13.7-25.6c2-6.6,7.1-11.7,13.7-13.7c1.8-0.5,2.8-2.4,2.3-4.2s-2.4-2.8-4.2-2.3
		c0,0-0.1,0-0.1,0c-11.5,3.5-19.4,14.1-19.4,26.1c0,0.7,0,1.5,0.1,2.2c0,0.2,0.1,0.5,0.1,0.7c0,0.5,0.1,1,0.2,1.4
		c0,0.3,0.1,0.6,0.2,0.8c0.1,0.4,0.2,0.8,0.3,1.3c0.1,0.3,0.2,0.6,0.2,0.9c0.1,0.4,0.2,0.8,0.3,1.2c0.1,0.3,0.2,0.6,0.3,0.9
		c0.1,0.4,0.3,0.7,0.4,1.1c0.1,0.3,0.2,0.6,0.4,0.8c0.2,0.4,0.3,0.7,0.5,1.1c0.1,0.3,0.3,0.5,0.4,0.8c0.2,0.3,0.4,0.7,0.6,1
		c0.2,0.3,0.3,0.5,0.5,0.8c0.2,0.3,0.4,0.6,0.7,1c0.2,0.2,0.3,0.5,0.5,0.7c0.2,0.3,0.5,0.6,0.7,0.9c0.2,0.2,0.4,0.5,0.6,0.7
		c0.3,0.3,0.6,0.6,0.8,0.9c0.1,0.1,0.2,0.2,0.3,0.3c0.1,0.1,0.2,0.2,0.3,0.3c0.3,0.3,0.6,0.6,0.9,0.8c0.2,0.2,0.4,0.4,0.6,0.5
		c0.4,0.3,0.7,0.6,1.1,0.9c0.2,0.1,0.4,0.3,0.6,0.4c0.5,0.4,1.1,0.7,1.7,1.1c0,0,0.1,0,0.1,0.1c0.6,0.4,1.2,0.7,1.9,1
		c0.2,0.1,0.4,0.2,0.6,0.3c0.4,0.2,0.8,0.4,1.2,0.6v3.7c-16-5.8-24.3-23.4-18.5-39.5c3.6-10,12.2-17.5,22.6-19.7
		c1.8-0.4,3-2.1,2.7-4c-0.4-1.8-2.1-3-4-2.7c0,0-0.1,0-0.1,0C15.6,7.8,2.6,27.7,6.9,48.1c3.1,14.6,14.5,25.9,29,29
		c0.2,0,0.5,0.1,0.7,0.1c1.9,0,3.4-1.5,3.4-3.4c0,0,0,0,0,0V63.2c0-0.1,0-0.1,0-0.2C40,62.9,40,62.8,40,62.7z"/>
	
		<linearGradient id="Path_7985_00000149380802041460664730000000726114364467403410_" gradientUnits="userSpaceOnUse" x1="-238.0334" y1="337.063" x2="-236.9672" y2="335.967" gradientTransform="matrix(30.8152 0 0 -66.7443 7373.7354 22493.5977)">
		<stop  offset="4.000000e-03" style="stop-color:#F16522"/>
		<stop  offset="0.208" style="stop-color:#EB6022"/>
		<stop  offset="0.476" style="stop-color:#DB5322"/>
		<stop  offset="0.778" style="stop-color:#C03E21"/>
		<stop  offset="1" style="stop-color:#A72A21"/>
	</linearGradient>
	<path id="Path_7985" style="fill:url(#Path_7985_00000149380802041460664730000000726114364467403410_);" d="M70.2,13.7
		C65,8.5,58.4,5,51.3,3.5c-1.8-0.4-3.6,0.7-4.1,2.6s0.7,3.6,2.6,4.1c0,0,0.1,0,0.1,0C66.6,13.7,77.2,30,73.7,46.7
		C71.4,57.1,64,65.6,54,69.3v-3.7c0.4-0.2,0.8-0.4,1.2-0.6c0.2-0.1,0.4-0.2,0.6-0.3c0.6-0.3,1.3-0.7,1.9-1c0,0,0.1,0,0.1-0.1
		c0.6-0.3,1.1-0.7,1.7-1.1c0.2-0.1,0.4-0.3,0.6-0.4c0.4-0.3,0.7-0.6,1.1-0.9c0.2-0.2,0.4-0.4,0.6-0.5c0.3-0.3,0.6-0.6,0.9-0.8
		c0.1-0.1,0.2-0.2,0.3-0.3s0.2-0.2,0.3-0.3c0.3-0.3,0.6-0.6,0.8-0.9c0.2-0.2,0.4-0.5,0.6-0.7c0.3-0.3,0.5-0.6,0.7-0.9
		c0.2-0.2,0.4-0.5,0.5-0.7c0.2-0.3,0.4-0.6,0.7-1c0.2-0.3,0.3-0.5,0.5-0.8c0.2-0.3,0.4-0.7,0.6-1c0.1-0.3,0.3-0.5,0.4-0.8
		c0.2-0.3,0.3-0.7,0.5-1.1c0.1-0.3,0.2-0.6,0.4-0.8c0.1-0.4,0.3-0.7,0.4-1.1c0.1-0.3,0.2-0.6,0.3-0.9c0.1-0.4,0.2-0.8,0.3-1.2
		c0.1-0.3,0.2-0.6,0.2-0.9c0.1-0.4,0.2-0.8,0.3-1.3c0.1-0.3,0.1-0.5,0.2-0.8c0.1-0.5,0.1-0.9,0.2-1.4c0-0.2,0.1-0.5,0.1-0.7
		c0.1-0.7,0.1-1.4,0.1-2.2c0-12-7.8-22.7-19.4-26.2c-1.8-0.5-3.7,0.5-4.2,2.3c-0.5,1.8,0.5,3.6,2.2,4.2c10.9,3.3,17,14.7,13.7,25.6
		c-2,6.6-7.1,11.7-13.7,13.7c-0.2,0.1-0.4,0.1-0.6,0.2c-0.1,0-0.1,0.1-0.2,0.1c-0.1,0.1-0.2,0.1-0.3,0.2c-0.1,0-0.1,0.1-0.2,0.1
		c-0.1,0.1-0.2,0.2-0.3,0.3c0,0.1-0.1,0.1-0.1,0.2c-0.1,0.1-0.2,0.3-0.3,0.4c0,0,0,0.1-0.1,0.1c-0.1,0.2-0.2,0.4-0.2,0.6
		c0,0.1,0,0.1,0,0.2c0,0.1-0.1,0.3-0.1,0.4c0,0.1,0,0.2,0,0.2s0,0.1,0,0.2v10.6c0,1.9,1.5,3.4,3.4,3.4c0,0,0,0,0,0
		c0.2,0,0.5,0,0.7-0.1C71.6,72.9,84.6,53,80.4,32.7C78.9,25.5,75.4,18.9,70.2,13.7z"/>
	
		<linearGradient id="Path_7986_00000099663961313762549590000017224178525607593371_" gradientUnits="userSpaceOnUse" x1="-236.3112" y1="331.5534" x2="-235.0384" y2="328.7162" gradientTransform="matrix(25.776 0 0 -25.776 6117.6558 8548.2432)">
		<stop  offset="4.000000e-03" style="stop-color:#F16522"/>
		<stop  offset="0.208" style="stop-color:#EB6022"/>
		<stop  offset="0.476" style="stop-color:#DB5322"/>
		<stop  offset="0.778" style="stop-color:#C03E21"/>
		<stop  offset="1" style="stop-color:#A72A21"/>
	</linearGradient>
	<path id="Path_7986" style="fill:url(#Path_7986_00000099663961313762549590000017224178525607593371_);" d="M57.8,40.3
		c0-7.9-6.4-14.2-14.2-14.3c-7.9,0-14.2,6.4-14.3,14.2c0,7.9,6.4,14.2,14.2,14.3c3.8,0,7.4-1.5,10.1-4.2
		C56.3,47.7,57.8,44,57.8,40.3z M43.6,47.7c-4.1,0-7.5-3.3-7.5-7.4c0-4.1,3.3-7.5,7.4-7.5s7.5,3.3,7.5,7.4c0,2-0.8,3.9-2.2,5.3
		C47.5,46.9,45.6,47.7,43.6,47.7z"/>
</g>
</svg>
